<?xml version="1.0" standalone="no"?>
<!DOCTYPE svg PUBLIC "-//W3C//DTD SVG 20010904//EN"
 "http://www.w3.org/TR/2001/REC-SVG-20010904/DTD/svg10.dtd">
<svg version="1.0" xmlns="http://www.w3.org/2000/svg"
 width="1280.000000pt" height="640.000000pt" viewBox="0 0 1280.000000 640.000000"
 preserveAspectRatio="xMidYMid meet">
<g transform="translate(0.000000,640.000000) scale(0.100000,-0.100000)"
fill="#000000" stroke="none">
<path d="M11836 3495 c-120 -52 -183 -94 -245 -162 l-56 -63 -5756 0 -5756 0
-7 -37 c-3 -21 -6 -55 -6 -75 l0 -38 5766 0 5766 0 75 -80 c59 -63 91 -88 155
-120 76 -38 108 -48 108 -34 0 4 -15 27 -34 53 -71 98 -84 151 -31 131 40 -15
77 -12 114 11 44 27 54 15 49 -55 -1 -31 -2 -56 0 -56 2 0 22 13 45 29 62 42
196 107 258 125 50 15 278 46 447 61 39 4 72 11 72 16 0 10 -32 15 -200 29
-74 6 -166 16 -205 21 -156 23 -311 85 -365 145 -17 20 -34 34 -37 30 -5 -4
-9 -43 -13 -119 0 -4 -9 -3 -19 3 -33 17 -100 12 -133 -11 -67 -48 -46 23 43
139 38 51 64 92 57 92 -7 0 -48 -16 -92 -35z"/>
</g>
</svg>
